# xmcd
#
# Track frame offsets: 
#        150
#        7200
#        24389
#        40878
#        57749
#        69638
#        90393
#        102196
#        121676
#
# Disc length: 2096 seconds
#
# Revision: 0
# Processed by: cddbd v1.5.2PL0 Copyright (c) Steve Scherf et al.
# Submitted via: ExactAudioCopyFreeDBPlugin 1.0
#
DISCID=71082e09
DTITLE=Cenzino - Je m'excuse
DYEAR=2008
DGENRE=Hip-Hop
TTITLE0=Je m'excuse feat. Dj Nevahdie
TTITLE1=L'h.i.p h.o.p
TTITLE2=Conflits familiaux feat. Jamal and Nazasir
TTITLE3=Ma raison hantée feat. Tony Danmhie
TTITLE4=40 Mesures Pour Le Globe
TTITLE5=Bienvenue feat. A's, Dezaroi and Dj Mesk
TTITLE6=J'ai vu
TTITLE7=Outroveineuse
TTITLE8=Unknown Title
EXTD=
EXTT0=
EXTT1=
EXTT2=
EXTT3=
EXTT4=
EXTT5=
EXTT6=
EXTT7=
EXTT8=
PLAYORDER=
